<svg width="16" height="16" viewBox="0 0 16 16" fill="none" xmlns="http://www.w3.org/2000/svg">
<path d="M10.6256 8.47535L10.0292 8.02066L10.0258 8.02521L10.6256 8.47535ZM10.4455 8.68117L10.9757 9.21163L10.9757 9.21163L10.4455 8.68117ZM10.6128 7.50413L11.2061 7.04541L11.1768 7.00752L11.143 6.97366L10.6128 7.50413ZM10.5634 7.45117L10.0111 7.95858L10.0111 7.95859L10.5634 7.45117ZM10.4004 7.27901L9.85184 7.79044L9.86086 7.80012L9.87022 7.80947L10.4004 7.27901ZM7.77494 5.50381L7.49297 6.19884L7.50081 6.20192L7.77494 5.50381ZM7.24083 5.35588L7.2734 4.60658L7.25712 4.60588H7.24083V5.35588ZM6.83543 5.45235L6.50015 4.78147L6.48443 4.78932L6.46911 4.7979L6.83543 5.45235ZM6.47507 5.85113L5.78439 5.55878L5.7801 5.56892L5.77611 5.57918L6.47507 5.85113ZM6.35924 6.32066L7.09652 6.45819L7.10924 6.39001V6.32066H6.35924ZM6.34637 9.62666L5.60467 9.73797L5.64136 9.98241L5.81619 10.1571L6.34637 9.62666ZM6.36209 9.69873L5.62674 9.84621V9.84621L6.36209 9.69873ZM6.50081 10.212L5.83594 10.559L5.8365 10.5601L6.50081 10.212ZM7.24083 10.6493V11.3993H7.25332L7.2658 11.3989L7.24083 10.6493ZM7.83929 10.4692L7.55187 9.77649L7.08929 9.96842V10.4692H7.83929ZM10.4069 8.71976L9.87666 8.1893L9.86605 8.1999L9.85587 8.21092L10.4069 8.71976ZM8.00016 0.585938C3.91138 0.585938 0.583496 3.91274 0.583496 8.00646H2.0835C2.0835 4.74081 4.74016 2.08594 8.00016 2.08594V0.585938ZM15.4168 8.00646C15.4168 3.91274 12.0889 0.585938 8.00016 0.585938V2.08594C11.2602 2.08594 13.9168 4.74081 13.9168 8.00646H15.4168ZM8.00016 15.4193C12.0884 15.4193 15.4168 12.093 15.4168 8.00646H13.9168C13.9168 11.2638 11.2607 13.9193 8.00016 13.9193V15.4193ZM0.583496 8.00646C0.583496 12.093 3.91195 15.4193 8.00016 15.4193V13.9193C4.7396 13.9193 2.0835 11.2638 2.0835 8.00646H0.583496ZM10.0258 8.02521C10.0309 8.01834 10.03 8.01989 10.0191 8.03314C10.0104 8.04375 9.99876 8.05772 9.98553 8.07315C9.95674 8.10672 9.93083 8.13515 9.91526 8.15071L10.9757 9.21163C11.0755 9.11183 11.1886 8.97474 11.2255 8.92549L10.0258 8.02521ZM10.0301 8.00646C10.0301 8.01301 10.029 8.01842 10.0279 8.02174C10.0269 8.02483 10.0267 8.02399 10.0292 8.02068L11.2221 8.93002C11.4326 8.65393 11.5301 8.3238 11.5301 8.00646H10.0301ZM10.0194 7.96286C10.0225 7.96684 10.0301 7.97737 10.0301 8.00646H11.5301C11.5301 7.66122 11.4218 7.32443 11.2061 7.04541L10.0194 7.96286ZM10.0111 7.95859C10.0265 7.97537 10.0591 8.01109 10.0826 8.0346L11.143 6.97366C11.1475 6.97817 11.1498 6.98071 11.1486 6.97938C11.1478 6.97857 11.146 6.97665 11.1428 6.97318C11.1361 6.96601 11.1276 6.95671 11.1157 6.94374L10.0111 7.95859ZM9.87022 7.80947C9.9158 7.85504 9.96662 7.91018 10.0111 7.95858L11.1157 6.94375C11.0745 6.89897 11.0025 6.82036 10.9306 6.74856L9.87022 7.80947ZM7.50081 6.20192C7.78424 6.31321 8.25486 6.57918 8.7405 6.90695C9.22705 7.23533 9.64684 7.57055 9.85184 7.79044L10.949 6.76759C10.6263 6.42147 10.0937 6.01059 9.57964 5.66362C9.06464 5.31604 8.48635 4.97741 8.04906 4.8057L7.50081 6.20192ZM7.20827 6.10517C7.18294 6.10407 7.18002 6.10128 7.2096 6.10782C7.23411 6.11323 7.26677 6.12187 7.30538 6.13354C7.38401 6.1573 7.45887 6.18496 7.49299 6.1988L8.05688 4.80882C7.98161 4.77828 7.86341 4.73518 7.73935 4.69769C7.63439 4.66597 7.44958 4.61424 7.2734 4.60658L7.20827 6.10517ZM7.17071 6.12324C7.19706 6.11007 7.2176 6.10588 7.24083 6.10588V4.60588C6.98093 4.60588 6.73119 4.666 6.50015 4.78147L7.17071 6.12324ZM7.16574 6.14348C7.16948 6.13466 7.18134 6.11823 7.20174 6.10681L6.46911 4.7979C6.16776 4.96658 5.92223 5.23315 5.78439 5.55878L7.16574 6.14348ZM7.10924 6.32066C7.10924 6.35581 7.10666 6.38315 7.10597 6.39052C7.10489 6.40204 7.10376 6.41118 7.10311 6.41618C7.1018 6.42629 7.10058 6.43405 7.1001 6.43707C7.09903 6.44381 7.09816 6.44856 7.09805 6.44916C7.09767 6.45129 7.09768 6.45111 7.0984 6.44744C7.09969 6.44083 7.10201 6.42933 7.10527 6.41365C7.11175 6.38251 7.12098 6.33966 7.13142 6.29394C7.14201 6.24761 7.15297 6.20219 7.16294 6.16456C7.1679 6.14582 7.17192 6.1317 7.17485 6.12202C7.17832 6.11059 7.17809 6.11262 7.17402 6.12308L5.77611 5.57918C5.72994 5.69785 5.68964 5.86995 5.6691 5.95986C5.65622 6.01624 5.64493 6.06867 5.63673 6.10808C5.63265 6.12768 5.62908 6.14526 5.62633 6.15933C5.62502 6.166 5.62347 6.17406 5.62203 6.18204C5.62139 6.18556 5.62012 6.19264 5.61878 6.20108C5.61816 6.20495 5.61684 6.21341 5.61547 6.22405C5.61478 6.22931 5.61363 6.23868 5.61253 6.25038C5.61182 6.25793 5.60924 6.28541 5.60924 6.32066H7.10924ZM6.99984 7.99939C6.99984 7.33158 7.03855 6.76897 7.09652 6.45819L5.62195 6.18314C5.53835 6.63131 5.49984 7.30363 5.49984 7.99939H6.99984ZM7.08806 9.51535C7.03752 9.17857 6.99984 8.62732 6.99984 7.99939H5.49984C5.49984 8.67198 5.53938 9.30292 5.60467 9.73797L7.08806 9.51535ZM7.09745 9.55125C7.09356 9.53187 7.08895 9.50879 7.0851 9.49074C7.0834 9.48276 7.07994 9.46673 7.07555 9.4493C7.07372 9.44205 7.06863 9.42201 7.06072 9.39757C7.05709 9.38633 7.0485 9.36048 7.03479 9.32885C7.03452 9.32824 6.98757 9.20714 6.87654 9.09617L5.81619 10.1571C5.74874 10.0897 5.71031 10.0251 5.69585 9.99987C5.67761 9.96806 5.66539 9.94126 5.65863 9.92567C5.64518 9.89464 5.63689 9.86959 5.63357 9.85934C5.6263 9.83688 5.62197 9.81959 5.62102 9.81583C5.61838 9.80536 5.61715 9.7992 5.61811 9.80369C5.61957 9.81054 5.62202 9.82271 5.62674 9.84621L7.09745 9.55125ZM7.16568 9.86491C7.18109 9.89443 7.18223 9.90488 7.1732 9.87639C7.16623 9.85441 7.15754 9.82309 7.14773 9.78322C7.128 9.70311 7.11079 9.61775 7.09745 9.55125L5.62674 9.84621C5.63954 9.91006 5.66263 10.0257 5.6912 10.1417C5.71375 10.2334 5.75958 10.4127 5.83594 10.559L7.16568 9.86491ZM7.21509 9.89933C7.2024 9.89933 7.17925 9.89081 7.16511 9.86383L5.8365 10.5601C6.1055 11.0734 6.63576 11.3993 7.21509 11.3993V9.89933ZM7.24083 9.89933H7.21509V11.3993H7.24083V9.89933ZM7.08929 10.4692C7.08929 10.3472 7.11888 10.2491 7.14558 10.1842C7.17244 10.1188 7.20363 10.0693 7.2264 10.037C7.27023 9.97491 7.31387 9.93345 7.33454 9.91465C7.37776 9.87537 7.41585 9.85031 7.42777 9.84251C7.45751 9.82308 7.48163 9.81052 7.48674 9.80785C7.49587 9.80306 7.50269 9.79977 7.50554 9.79841C7.50887 9.79682 7.51102 9.79584 7.5116 9.79557C7.51241 9.79521 7.50572 9.7982 7.4904 9.80444C7.46115 9.81633 7.41688 9.83333 7.36723 9.85051C7.3167 9.86799 7.26867 9.88286 7.22975 9.89282C7.18132 9.90522 7.18219 9.90087 7.21586 9.89975L7.2658 11.3989C7.49029 11.3914 7.74006 11.3088 7.85768 11.2681C7.93351 11.2418 8.00266 11.2154 8.05546 11.1939C8.08115 11.1835 8.10764 11.1723 8.13138 11.1615C8.14151 11.1569 8.16095 11.148 8.18264 11.1367C8.19076 11.1324 8.21718 11.1185 8.24846 11.0981C8.26116 11.0898 8.29983 11.0643 8.34345 11.0247C8.36432 11.0057 8.4081 10.9641 8.45203 10.9018C8.48483 10.8553 8.58929 10.6995 8.58929 10.4692H7.08929ZM9.85587 8.21092C9.64614 8.43802 9.23331 8.76567 8.75768 9.08547C8.28526 9.40311 7.82597 9.66277 7.55187 9.77649L8.1267 11.162C8.53472 10.9927 9.08894 10.6703 9.59464 10.3303C10.0971 9.9924 10.627 9.58681 10.9578 9.2286L9.85587 8.21092ZM9.91527 8.15071L9.87666 8.1893L10.9371 9.25022L10.9757 9.21163L9.91527 8.15071Z" fill="#344054"/>
</svg>
