<svg width="14" height="12" viewBox="0 0 14 12" fill="none" xmlns="http://www.w3.org/2000/svg">
<path d="M0.783203 11.4483V7.54023C0.783203 5.51724 1.24814 3.86207 2.17801 2.57471C3.13995 1.25671 4.55078 0.398468 6.41053 0V2.06897C5.41653 2.31418 4.66301 2.77395 4.14998 3.44828C3.66901 4.09195 3.38043 4.91954 3.28424 5.93103H5.44859V11.4483H0.783203Z" fill="#101828"/>
<path d="M7.58984 12V9.93104C8.58384 9.68582 9.32133 9.24138 9.8023 8.5977C10.3153 7.92337 10.6199 7.08046 10.7161 6.06897H8.55178V0.551722H13.2172V4.45977C13.2172 6.45211 12.7362 8.10728 11.7743 9.42529C10.8444 10.7126 9.44959 11.5709 7.58984 12Z" fill="#101828"/>
</svg>
