<svg width="16" height="16" viewBox="0 0 16 16" fill="none" xmlns="http://www.w3.org/2000/svg">
<path d="M2.33317 4C2.20132 4 2.07242 4.0391 1.96279 4.11235C1.85316 4.18561 1.76771 4.28973 1.71725 4.41154C1.66679 4.53336 1.65359 4.66741 1.67931 4.79673C1.70504 4.92605 1.76853 5.04484 1.86177 5.13807C1.955 5.23131 2.07379 5.2948 2.20311 5.32052C2.33243 5.34625 2.46648 5.33304 2.58829 5.28259C2.71011 5.23213 2.81423 5.14668 2.88748 5.03705C2.96074 4.92741 2.99984 4.79852 2.99984 4.66667C2.99984 4.48986 2.9296 4.32029 2.80458 4.19526C2.67955 4.07024 2.50998 4 2.33317 4ZM4.99984 5.33333H14.3332C14.51 5.33333 14.6796 5.2631 14.8046 5.13807C14.9296 5.01305 14.9998 4.84348 14.9998 4.66667C14.9998 4.48986 14.9296 4.32029 14.8046 4.19526C14.6796 4.07024 14.51 4 14.3332 4H4.99984C4.82303 4 4.65346 4.07024 4.52843 4.19526C4.40341 4.32029 4.33317 4.48986 4.33317 4.66667C4.33317 4.84348 4.40341 5.01305 4.52843 5.13807C4.65346 5.2631 4.82303 5.33333 4.99984 5.33333ZM4.99984 7.33333C4.86798 7.33333 4.73909 7.37243 4.62946 7.44569C4.51982 7.51894 4.43438 7.62306 4.38392 7.74488C4.33346 7.86669 4.32026 8.00074 4.34598 8.13006C4.3717 8.25938 4.4352 8.37817 4.52843 8.4714C4.62167 8.56464 4.74046 8.62813 4.86978 8.65386C4.9991 8.67958 5.13314 8.66638 5.25496 8.61592C5.37678 8.56546 5.4809 8.48001 5.55415 8.37038C5.6274 8.26075 5.6665 8.13185 5.6665 8C5.6665 7.82319 5.59627 7.65362 5.47124 7.5286C5.34622 7.40357 5.17665 7.33333 4.99984 7.33333ZM7.6665 10.6667C7.53465 10.6667 7.40576 10.7058 7.29612 10.779C7.18649 10.8523 7.10104 10.9564 7.05058 11.0782C7.00013 11.2 6.98692 11.3341 7.01265 11.4634C7.03837 11.5927 7.10187 11.7115 7.1951 11.8047C7.28834 11.898 7.40712 11.9615 7.53644 11.9872C7.66577 12.0129 7.79981 11.9997 7.92163 11.9493C8.04344 11.8988 8.14756 11.8133 8.22082 11.7037C8.29407 11.5941 8.33317 11.4652 8.33317 11.3333C8.33317 11.1565 8.26293 10.987 8.13791 10.8619C8.01289 10.7369 7.84332 10.6667 7.6665 10.6667ZM14.3332 7.33333H7.6665C7.48969 7.33333 7.32012 7.40357 7.1951 7.5286C7.07008 7.65362 6.99984 7.82319 6.99984 8C6.99984 8.17681 7.07008 8.34638 7.1951 8.4714C7.32012 8.59643 7.48969 8.66667 7.6665 8.66667H14.3332C14.51 8.66667 14.6796 8.59643 14.8046 8.4714C14.9296 8.34638 14.9998 8.17681 14.9998 8C14.9998 7.82319 14.9296 7.65362 14.8046 7.5286C14.6796 7.40357 14.51 7.33333 14.3332 7.33333ZM14.3332 10.6667H10.3332C10.1564 10.6667 9.98679 10.7369 9.86177 10.8619C9.73674 10.987 9.6665 11.1565 9.6665 11.3333C9.6665 11.5101 9.73674 11.6797 9.86177 11.8047C9.98679 11.9298 10.1564 12 10.3332 12H14.3332C14.51 12 14.6796 11.9298 14.8046 11.8047C14.9296 11.6797 14.9998 11.5101 14.9998 11.3333C14.9998 11.1565 14.9296 10.987 14.8046 10.8619C14.6796 10.7369 14.51 10.6667 14.3332 10.6667Z" fill="black"/>
</svg>
