<svg width="21" height="20" viewBox="0 0 21 20" fill="none" xmlns="http://www.w3.org/2000/svg">
<g id="Frame 4">
<path id="Vector 7" d="M19.8571 1H4.42858C2.53503 1 1 2.53502 1 4.42857V4.42857C1 6.32212 2.53502 7.85714 4.42857 7.85714H19.8571" stroke="#667085" stroke-width="1.71429" stroke-linecap="round"/>
<path id="Vector 10" d="M1.00003 19L16.4286 19C18.3221 19 19.8572 17.465 19.8572 15.5714V15.5714C19.8572 13.6779 18.3222 12.1429 16.4286 12.1429L1.00004 12.1429" stroke="#667085" stroke-width="1.71429" stroke-linecap="round"/>
<path id="Vector 8" d="M15.5713 1V7.85714" stroke="#667085" stroke-width="1.71429" stroke-linecap="round"/>
<path id="Vector 11" d="M5.28564 19L5.28565 12.1429" stroke="#667085" stroke-width="1.71429" stroke-linecap="round"/>
<path id="Vector 9" d="M15.5714 1H5.48806C4.28151 1 3.14538 1.56807 2.42145 2.5333L2.14998 2.89527C1.4452 3.83498 1.33183 5.09223 1.85714 6.14286C2.38246 7.19349 3.45628 7.85714 4.63092 7.85714H15.5714V1Z" fill="#667085"/>
<path id="Vector 12" d="M5.28575 19L15.3691 19C16.5757 19 17.7118 18.4319 18.4357 17.4667L18.7072 17.1047C19.412 16.165 19.5253 14.9078 19 13.8571C18.4747 12.8065 17.4009 12.1429 16.2263 12.1429L5.28575 12.1429L5.28575 19Z" fill="#667085"/>
</g>
</svg>
