<svg width="40" height="41" viewBox="0 0 40 41" fill="none" xmlns="http://www.w3.org/2000/svg">
<path fill-rule="evenodd" clip-rule="evenodd" d="M4 19.4996C4 21.3561 4.7375 23.1366 6.05025 24.4493C7.36301 25.7621 9.14349 26.4996 11 26.4996H18V31.6716L15.414 29.0856C15.0368 28.7212 14.5316 28.5197 14.0072 28.5242C13.4828 28.5288 12.9812 28.7391 12.6104 29.1099C12.2395 29.4807 12.0292 29.9824 12.0247 30.5068C12.0201 31.0312 12.2217 31.5364 12.586 31.9136L18.586 37.9136C18.9611 38.2885 19.4697 38.4991 20 38.4991C20.5303 38.4991 21.0389 38.2885 21.414 37.9136L27.414 31.9136C27.7783 31.5364 27.9799 31.0312 27.9753 30.5068C27.9708 29.9824 27.7605 29.4807 27.3896 29.1099C27.0188 28.7391 26.5172 28.5288 25.9928 28.5242C25.4684 28.5197 24.9632 28.7212 24.586 29.0856L22 31.6716V26.4996H27C28.2335 26.4988 29.4536 26.2446 30.5847 25.7526C31.7158 25.2606 32.7337 24.5413 33.5752 23.6394C34.4167 22.7376 35.0638 21.6724 35.4764 20.5099C35.8889 19.3475 36.0582 18.1127 35.9735 16.8821C35.8889 15.6516 35.5523 14.4515 34.9845 13.3565C34.4166 12.2615 33.6298 11.2949 32.6728 10.5167C31.7158 9.73855 30.609 9.16538 29.4212 8.83283C28.2334 8.50028 26.99 8.41543 25.768 8.58356C25.5318 7.54073 25.0891 6.55579 24.4659 5.68691C23.8427 4.81803 23.0518 4.08281 22.1398 3.52466C21.2278 2.96652 20.2132 2.59677 19.1559 2.43724C18.0986 2.27771 17.0201 2.33164 15.984 2.59584C14.9479 2.86004 13.9753 3.32916 13.1235 3.9755C12.2717 4.62183 11.5581 5.43228 11.0247 6.359C10.4913 7.28571 10.149 8.3099 10.018 9.37109C9.88703 10.4323 9.96999 11.509 10.262 12.5376C8.54272 12.7198 6.95172 13.5319 5.79553 14.8174C4.63933 16.1028 3.99975 17.7706 4 19.4996ZM22 26.4996H18V16.4996C18 15.9691 18.2107 15.4604 18.5858 15.0853C18.9609 14.7103 19.4696 14.4996 20 14.4996C20.5304 14.4996 21.0391 14.7103 21.4142 15.0853C21.7893 15.4604 22 15.9691 22 16.4996V26.4996Z" fill="#667085"/>
</svg>
