<svg width="16" height="15" viewBox="0 0 16 15" fill="none" xmlns="http://www.w3.org/2000/svg">
<path fill-rule="evenodd" clip-rule="evenodd" d="M9.85794 1.83157L15.3095 11.2929C15.4295 11.5753 15.482 11.805 15.497 12.0435C15.527 12.6009 15.332 13.1427 14.9496 13.5596C14.5671 13.975 14.0497 14.2203 13.4873 14.25H2.50918C2.27672 14.2359 2.04426 14.1831 1.82679 14.1014C0.739476 13.6629 0.214565 12.4292 0.65699 11.3598L6.14606 1.82488C6.33353 1.48971 6.61848 1.20061 6.97093 1.01482C7.99075 0.449265 9.28804 0.820852 9.85794 1.83157ZM8.65064 8.06679C8.65064 8.42352 8.35819 8.72153 7.99825 8.72153C7.63831 8.72153 7.33836 8.42352 7.33836 8.06679V5.96436C7.33836 5.60689 7.63831 5.3178 7.99825 5.3178C8.35819 5.3178 8.65064 5.60689 8.65064 5.96436V8.06679ZM7.99825 11.2632C7.63831 11.2632 7.33836 10.9652 7.33836 10.6092C7.33836 10.2517 7.63831 9.95446 7.99825 9.95446C8.35819 9.95446 8.65064 10.245 8.65064 10.601C8.65064 10.9652 8.35819 11.2632 7.99825 11.2632Z" fill="#344054"/>
</svg>
