<svg width="14" height="15" viewBox="0 0 14 15" fill="none" xmlns="http://www.w3.org/2000/svg">
<path fill-rule="evenodd" clip-rule="evenodd" d="M13.2153 2.43223C13.5071 2.43223 13.75 2.67447 13.75 2.98272V3.26772C13.75 3.56846 13.5071 3.81821 13.2153 3.81821H0.78539C0.492895 3.81821 0.25 3.56846 0.25 3.26772V2.98272C0.25 2.67447 0.492895 2.43223 0.78539 2.43223H2.97217C3.41639 2.43223 3.80298 2.11648 3.90291 1.67098L4.01743 1.15949C4.1954 0.462745 4.78112 0 5.45145 0H8.54855C9.21158 0 9.80387 0.462745 9.97528 1.12274L10.0978 1.67023C10.197 2.11648 10.5836 2.43223 11.0286 2.43223H13.2153ZM12.1044 12.8505C12.3327 10.7228 12.7324 5.66784 12.7324 5.61684C12.747 5.46235 12.6967 5.3161 12.5967 5.19835C12.4895 5.0881 12.3538 5.02285 12.2043 5.02285H1.80139C1.65113 5.02285 1.50817 5.0881 1.40897 5.19835C1.30831 5.3161 1.25871 5.46235 1.266 5.61684C1.26734 5.62621 1.28168 5.80428 1.30566 6.10197C1.41219 7.42441 1.70888 11.1076 1.90059 12.8505C2.03626 14.1345 2.87874 14.9415 4.09905 14.9708C5.04072 14.9925 6.01084 15 7.00284 15C7.93722 15 8.88619 14.9925 9.85704 14.9708C11.1197 14.949 11.9614 14.1563 12.1044 12.8505Z" fill="#D92D20"/>
</svg>
