<svg width="18" height="19" viewBox="0 0 18 19" fill="none" xmlns="http://www.w3.org/2000/svg">
<path fill-rule="evenodd" clip-rule="evenodd" d="M7.0323 15.5209L13.6221 6.99908C13.9802 6.53953 14.1076 6.00822 13.9882 5.46724C13.8847 4.97544 13.5823 4.50783 13.1286 4.15309L12.0224 3.2743C11.0594 2.50838 9.86559 2.589 9.18114 3.46779L8.44099 4.42801C8.34548 4.54814 8.36936 4.72551 8.48874 4.82226C8.48874 4.82226 10.359 6.32185 10.3988 6.35409C10.5262 6.47503 10.6217 6.63628 10.6455 6.82977C10.6853 7.2087 10.4227 7.56344 10.0327 7.61181C9.84967 7.636 9.67458 7.57956 9.54724 7.47475L7.58145 5.91067C7.48594 5.83891 7.34269 5.85423 7.2631 5.95098L2.59135 11.9977C2.28892 12.3766 2.18546 12.8684 2.28892 13.3441L2.88582 15.9321C2.91766 16.0692 3.03704 16.1659 3.1803 16.1659L5.80666 16.1337C6.28418 16.1256 6.72987 15.9079 7.0323 15.5209ZM10.7098 14.7149H14.9923C15.4102 14.7149 15.75 15.0592 15.75 15.4825C15.75 15.9065 15.4102 16.25 14.9923 16.25H10.7098C10.2919 16.25 9.9521 15.9065 9.9521 15.4825C9.9521 15.0592 10.2919 14.7149 10.7098 14.7149Z" fill="#344054"/>
</svg>
