<svg width="16" height="16" viewBox="0 0 16 16" fill="none" xmlns="http://www.w3.org/2000/svg">
<g clip-path="url(#clip0_1429_11413)">
<path d="M6.59996 2.82667C7.05885 2.71926 7.52867 2.66557 7.99996 2.66667C12.6666 2.66667 15.3333 8.00001 15.3333 8.00001C14.9286 8.75708 14.446 9.46983 13.8933 10.1267M9.41329 9.41334C9.23019 9.60984 9.00939 9.76744 8.76406 9.87676C8.51873 9.98607 8.25389 10.0448 7.98535 10.0496C7.71681 10.0543 7.45007 10.0049 7.20103 9.90433C6.952 9.80374 6.72577 9.65403 6.53586 9.46411C6.34594 9.27419 6.19622 9.04797 6.09563 8.79893C5.99504 8.5499 5.94564 8.28315 5.95038 8.01461C5.95512 7.74607 6.0139 7.48124 6.12321 7.23591C6.23252 6.99057 6.39013 6.76977 6.58663 6.58667M11.96 11.96C10.8204 12.8287 9.4327 13.3099 7.99996 13.3333C3.33329 13.3333 0.666626 8.00001 0.666626 8.00001C1.49589 6.4546 2.64605 5.10441 4.03996 4.04001L11.96 11.96Z" stroke="#667085" stroke-width="1.5" stroke-linecap="round" stroke-linejoin="round"/>
<path d="M0.666626 0.666656L15.3333 15.3333" stroke="#667085" stroke-width="1.5" stroke-linecap="round" stroke-linejoin="round"/>
</g>
<defs>
<clipPath id="clip0_1429_11413">
<rect width="16" height="16" fill="white"/>
</clipPath>
</defs>
</svg>
