<svg width="212" height="116" viewBox="0 0 212 116" fill="none" xmlns="http://www.w3.org/2000/svg">
<path d="M0.617676 0.0927734H211.494V99.5628C211.494 108.353 204.369 115.478 195.579 115.478H16.5329C7.74315 115.478 0.617676 108.352 0.617676 99.5628V0.0927734Z" fill="white"/>
<path d="M72.2996 60.9863V51.6282H52.525V46.1693L72.0211 19.4874H78.5384V46.1693H84.2758V51.6282H78.5384V60.9863H72.2996ZM57.3711 48.5645L56.3128 46.1693H72.2996V24.7235L74.0821 25.2806L57.3711 48.5645ZM105.247 61.6548C101.942 61.6548 99.0456 60.7635 96.5575 58.981C94.0694 57.1614 92.1198 54.6547 90.7086 51.4611C89.3346 48.2303 88.6476 44.4796 88.6476 40.209C88.6476 35.9013 89.3346 32.1506 90.7086 28.957C92.1198 25.7633 94.0508 23.2753 96.5018 21.4928C98.9899 19.7103 101.886 18.819 105.191 18.819C108.497 18.819 111.375 19.7103 113.825 21.4928C116.314 23.2753 118.245 25.7819 119.619 29.0127C121.03 32.2063 121.735 35.9385 121.735 40.209C121.735 44.4796 121.048 48.2303 119.674 51.4611C118.3 54.6547 116.369 57.1614 113.881 58.981C111.43 60.7635 108.552 61.6548 105.247 61.6548ZM105.247 55.6388C107.29 55.6388 109.054 55.0075 110.539 53.7449C112.024 52.4823 113.176 50.6998 113.993 48.3974C114.81 46.095 115.218 43.3655 115.218 40.209C115.218 37.0525 114.81 34.3231 113.993 32.0207C113.176 29.7183 112.024 27.9358 110.539 26.6732C109.054 25.4105 107.271 24.7792 105.191 24.7792C103.149 24.7792 101.385 25.4105 99.8997 26.6732C98.4143 27.9358 97.2631 29.7183 96.4461 32.0207C95.6291 34.3231 95.2206 37.0525 95.2206 40.209C95.2206 43.3284 95.6291 46.0579 96.4461 48.3974C97.2631 50.6998 98.4143 52.4823 99.8997 53.7449C101.422 55.0075 103.205 55.6388 105.247 55.6388ZM145.956 60.9863V51.6282H126.182V46.1693L145.678 19.4874H152.195V46.1693H157.932V51.6282H152.195V60.9863H145.956ZM131.028 48.5645L129.969 46.1693H145.956V24.7235L147.739 25.2806L131.028 48.5645Z" fill="#98A2B3"/>
<rect width="131.3" height="7.9576" transform="translate(42.3959 73.7002)" fill="#D0D5DD"/>
<rect width="95.4912" height="7.9576" transform="translate(60.2999 85.6367)" fill="#D0D5DD"/>
</svg>
