<svg width="24" height="24" viewBox="0 0 24 24" fill="none" xmlns="http://www.w3.org/2000/svg">
<g id="fi:book-open bold">
<path id="Vector" d="M22.5 5C22.5 3.89543 21.6046 3 20.5 3H16.5C15.4391 3 14.4217 3.42143 13.6716 4.17157C12.9214 4.92172 12.5 5.93913 12.5 7V21C12.5 20.2044 12.8161 19.4413 13.3787 18.8787C13.9413 18.3161 14.7044 18 15.5 18H20.5C21.6046 18 22.5 17.1046 22.5 16V5Z" fill="#667085"/>
<path id="Vector_2" d="M1.5 5C1.5 3.89543 2.39543 3 3.5 3H7.5C8.56087 3 9.57828 3.42143 10.3284 4.17157C11.0786 4.92172 11.5 5.93913 11.5 7V21C11.5 20.2044 11.1839 19.4413 10.6213 18.8787C10.0587 18.3161 9.29565 18 8.5 18H3.5C2.39543 18 1.5 17.1046 1.5 16V5Z" fill="#667085"/>
</g>
</svg>

