<svg width="33" height="32" viewBox="0 0 33 32" fill="none" xmlns="http://www.w3.org/2000/svg">
<path d="M2.59251 12.0504C1.83685 11.3006 0.555704 11.6951 0.337142 12.7333C0.118581 13.7715 0 14.8813 0 16.0002C0 17.1192 0.116256 18.2128 0.337142 19.2671C0.558029 20.3215 1.83452 20.6999 2.59251 19.9501L6.04299 16.5263C6.33595 16.2356 6.33595 15.7672 6.04299 15.4765L2.59251 12.0527V12.0504Z" fill="url(#paint0_linear_1876_18859)"/>
<path d="M19.8285 21.8071C16.5966 18.6001 16.5966 13.3999 19.8285 10.1929L24.602 5.45638C25.5879 4.47815 25.3879 2.82855 24.1812 2.13641C21.8119 0.777506 19.0613 0 16.127 0C13.1927 0 10.442 0.777506 8.07274 2.13641C6.866 2.82855 6.66604 4.47815 7.6519 5.45638L12.4254 10.1929C15.6573 13.3999 15.6573 18.6001 12.4254 21.8071L7.6519 26.5436C6.66604 27.5218 6.866 29.1714 8.07274 29.8636C10.442 31.2225 13.1927 32 16.127 32C19.0613 32 21.8119 31.2225 24.1812 29.8636C25.3879 29.1714 25.5879 27.5218 24.602 26.5436L19.8285 21.8071Z" fill="url(#paint1_linear_1876_18859)"/>
<path d="M29.6617 19.9501C30.4173 20.6999 31.6985 20.3054 31.917 19.2672C32.1379 18.2128 32.2542 17.1193 32.2542 16.0003C32.2542 14.8813 32.1379 13.7878 31.917 12.7334C31.6961 11.679 30.4196 11.3007 29.6617 12.0505L26.2112 15.4743C25.9182 15.765 25.9182 16.2333 26.2112 16.524L29.6617 19.9478V19.9501Z" fill="url(#paint2_linear_1876_18859)"/>
<defs>
<linearGradient id="paint0_linear_1876_18859" x1="-1.19511" y1="17.9405" x2="23.4323" y2="0.90154" gradientUnits="userSpaceOnUse">
<stop stop-color="#701AED"/>
<stop offset="0.61" stop-color="#2A7AF3"/>
<stop offset="0.77" stop-color="#3999F4"/>
<stop offset="1" stop-color="#54D1F8"/>
</linearGradient>
<linearGradient id="paint1_linear_1876_18859" x1="3.4318" y1="24.6495" x2="28.515" y2="7.29569" gradientUnits="userSpaceOnUse">
<stop stop-color="#701AED"/>
<stop offset="0.61" stop-color="#2A7AF3"/>
<stop offset="0.77" stop-color="#3999F4"/>
<stop offset="1" stop-color="#54D1F8"/>
</linearGradient>
<linearGradient id="paint2_linear_1876_18859" x1="8.51934" y1="31.0428" x2="33.1468" y2="14.0061" gradientUnits="userSpaceOnUse">
<stop stop-color="#701AED"/>
<stop offset="0.61" stop-color="#2A7AF3"/>
<stop offset="0.77" stop-color="#3999F4"/>
<stop offset="1" stop-color="#54D1F8"/>
</linearGradient>
</defs>
</svg>
