<svg width="442" height="178" viewBox="0 0 442 178" fill="none" xmlns="http://www.w3.org/2000/svg">
<circle cx="150.103" cy="112.929" r="9.62175" fill="#EAECF0"/>
<circle cx="291.897" cy="40.0065" r="9.62175" fill="#EAECF0"/>
<circle cx="296.961" cy="9.62164" r="4.55767" fill="#EAECF0"/>
<g filter="url(#filter0_dd_1668_53881)">
<rect x="159.725" width="113.435" height="113.435" rx="56.7177" fill="white"/>
<rect x="164.451" y="4.72656" width="103.982" height="103.982" rx="51.9912" fill="#F2F4F7"/>
<path d="M249.485 38.9935C249.485 35.3576 246.538 32.4102 242.902 32.4102H229.735C226.243 32.4102 222.894 33.7973 220.425 36.2666C217.956 38.7358 216.569 42.0848 216.569 45.5768V91.6599C216.569 89.0409 217.609 86.5292 219.461 84.6772C221.313 82.8253 223.825 81.7849 226.444 81.7849H242.902C246.538 81.7849 249.485 78.8375 249.485 75.2016V38.9935Z" fill="url(#paint0_linear_1668_53881)"/>
<path d="M184.032 38.74C184.032 35.1042 186.98 32.1567 190.616 32.1567H203.782C207.274 32.1567 210.623 33.5439 213.092 36.0131C215.562 38.4824 216.949 41.8313 216.949 45.3233V91.4065C216.949 88.7875 215.908 86.2757 214.056 84.4238C212.205 82.5719 209.693 81.5315 207.074 81.5315H190.616C186.98 81.5315 184.032 78.5841 184.032 74.9482V38.74Z" fill="url(#paint1_linear_1668_53881)"/>
</g>
<path fill-rule="evenodd" clip-rule="evenodd" d="M240.948 81.5588C242.315 80.1914 244.532 80.1914 245.9 81.5588L266.908 102.567C268.276 103.935 268.276 106.152 266.908 107.519C265.541 108.887 263.324 108.887 261.956 107.519L240.948 86.5105C239.58 85.1431 239.58 82.9262 240.948 81.5588Z" fill="#1D2939"/>
<circle opacity="0.5" cx="216.112" cy="56.7233" r="37.8156" fill="white"/>
<path fill-rule="evenodd" clip-rule="evenodd" d="M215.762 21.0088C196.231 21.0088 180.398 36.842 180.398 56.3734C180.398 75.9047 196.231 91.738 215.762 91.738C235.294 91.738 251.127 75.9047 251.127 56.3734C251.127 36.842 235.294 21.0088 215.762 21.0088ZM173.395 56.3734C173.395 32.9744 192.363 14.0059 215.762 14.0059C239.161 14.0059 258.13 32.9744 258.13 56.3734C258.13 79.7723 239.161 98.7409 215.762 98.7409C192.363 98.7409 173.395 79.7723 173.395 56.3734Z" fill="#475467"/>
<path d="M40.3283 171.551V154.271H42.4883L51.5003 167.771V154.271H53.6603V171.551H51.5003L42.4883 158.039V171.551H40.3283ZM62.0558 171.911C60.7678 171.911 59.6558 171.619 58.7198 171.035C57.7918 170.451 57.0758 169.643 56.5718 168.611C56.0678 167.579 55.8158 166.395 55.8158 165.059C55.8158 163.699 56.0718 162.507 56.5838 161.483C57.0958 160.459 57.8198 159.663 58.7558 159.095C59.6918 158.519 60.7918 158.231 62.0558 158.231C63.3518 158.231 64.4678 158.523 65.4038 159.107C66.3398 159.683 67.0558 160.487 67.5518 161.519C68.0558 162.543 68.3078 163.723 68.3078 165.059C68.3078 166.411 68.0558 167.603 67.5518 168.635C67.0478 169.659 66.3278 170.463 65.3918 171.047C64.4558 171.623 63.3438 171.911 62.0558 171.911ZM62.0558 169.883C63.3998 169.883 64.3998 169.435 65.0558 168.539C65.7118 167.643 66.0398 166.483 66.0398 165.059C66.0398 163.595 65.7078 162.431 65.0438 161.567C64.3798 160.695 63.3838 160.259 62.0558 160.259C61.1518 160.259 60.4078 160.463 59.8238 160.871C59.2398 161.279 58.8038 161.843 58.5158 162.563C58.2278 163.283 58.0838 164.115 58.0838 165.059C58.0838 166.515 58.4198 167.683 59.0918 168.563C59.7638 169.443 60.7518 169.883 62.0558 169.883ZM74.7945 171.551V158.591H76.7025V161.723L76.3905 161.315C76.5425 160.915 76.7385 160.547 76.9785 160.211C77.2265 159.875 77.5025 159.599 77.8065 159.383C78.1425 159.111 78.5225 158.903 78.9465 158.759C79.3705 158.615 79.8025 158.531 80.2425 158.507C80.6825 158.475 81.0945 158.503 81.4785 158.591V160.595C81.0305 160.475 80.5385 160.443 80.0025 160.499C79.4665 160.555 78.9705 160.751 78.5145 161.087C78.0985 161.383 77.7745 161.743 77.5425 162.167C77.3185 162.591 77.1625 163.051 77.0745 163.547C76.9865 164.035 76.9425 164.535 76.9425 165.047V171.551H74.7945ZM88.6493 171.911C87.3773 171.911 86.2653 171.631 85.3133 171.071C84.3693 170.503 83.6333 169.715 83.1053 168.707C82.5773 167.691 82.3133 166.507 82.3133 165.155C82.3133 163.739 82.5733 162.515 83.0933 161.483C83.6133 160.443 84.3373 159.643 85.2653 159.083C86.2013 158.515 87.2973 158.231 88.5533 158.231C89.8573 158.231 90.9653 158.531 91.8773 159.131C92.7973 159.731 93.4853 160.587 93.9413 161.699C94.4053 162.811 94.6053 164.135 94.5413 165.671H92.3813V164.903C92.3573 163.311 92.0333 162.123 91.4093 161.339C90.7853 160.547 89.8573 160.151 88.6253 160.151C87.3053 160.151 86.3013 160.575 85.6133 161.423C84.9253 162.271 84.5813 163.487 84.5813 165.071C84.5813 166.599 84.9253 167.783 85.6133 168.623C86.3013 169.463 87.2813 169.883 88.5533 169.883C89.4093 169.883 90.1533 169.687 90.7853 169.295C91.4173 168.903 91.9133 168.339 92.2733 167.603L94.3253 168.311C93.8213 169.455 93.0613 170.343 92.0453 170.975C91.0373 171.599 89.9053 171.911 88.6493 171.911ZM83.8613 165.671V163.955H93.4373V165.671H83.8613ZM101.629 171.899C100.085 171.899 98.817 171.563 97.825 170.891C96.841 170.211 96.237 169.263 96.013 168.047L98.197 167.699C98.373 168.403 98.777 168.963 99.409 169.379C100.041 169.787 100.825 169.991 101.761 169.991C102.649 169.991 103.345 169.807 103.849 169.439C104.353 169.071 104.605 168.571 104.605 167.939C104.605 167.571 104.521 167.275 104.353 167.051C104.185 166.819 103.837 166.603 103.309 166.403C102.789 166.203 102.001 165.963 100.945 165.683C99.801 165.379 98.901 165.063 98.245 164.735C97.589 164.407 97.121 164.027 96.841 163.595C96.561 163.163 96.421 162.639 96.421 162.023C96.421 161.263 96.629 160.599 97.045 160.031C97.461 159.455 98.041 159.011 98.785 158.699C99.537 158.387 100.409 158.231 101.401 158.231C102.385 158.231 103.265 158.387 104.041 158.699C104.817 159.011 105.441 159.455 105.913 160.031C106.393 160.599 106.677 161.263 106.765 162.023L104.581 162.419C104.477 161.723 104.141 161.175 103.573 160.775C103.013 160.375 102.289 160.163 101.401 160.139C100.561 160.107 99.877 160.255 99.349 160.583C98.829 160.911 98.569 161.355 98.569 161.915C98.569 162.227 98.665 162.495 98.857 162.719C99.057 162.943 99.421 163.155 99.949 163.355C100.485 163.555 101.261 163.783 102.277 164.039C103.421 164.327 104.321 164.643 104.977 164.987C105.641 165.323 106.113 165.723 106.393 166.187C106.673 166.643 106.813 167.207 106.813 167.879C106.813 169.127 106.353 170.111 105.433 170.831C104.513 171.543 103.245 171.899 101.629 171.899ZM113.9 171.887C113.068 171.887 112.352 171.755 111.752 171.491C111.16 171.227 110.668 170.875 110.276 170.435C109.884 169.995 109.576 169.507 109.352 168.971C109.128 168.435 108.968 167.887 108.872 167.327C108.784 166.767 108.74 166.243 108.74 165.755V158.591H110.9V165.083C110.9 165.691 110.956 166.279 111.068 166.847C111.18 167.415 111.368 167.927 111.632 168.383C111.904 168.839 112.264 169.199 112.712 169.463C113.168 169.727 113.736 169.859 114.416 169.859C114.952 169.859 115.44 169.767 115.88 169.583C116.32 169.399 116.696 169.127 117.008 168.767C117.32 168.399 117.56 167.935 117.728 167.375C117.896 166.815 117.98 166.163 117.98 165.419L119.384 165.851C119.384 167.099 119.156 168.175 118.7 169.079C118.252 169.983 117.616 170.679 116.792 171.167C115.976 171.647 115.012 171.887 113.9 171.887ZM118.22 171.551V168.083H117.98V158.591H120.128V171.551H118.22ZM123.247 171.551V153.911H125.383V171.551H123.247ZM135.74 171.551C134.972 171.703 134.212 171.763 133.46 171.731C132.716 171.707 132.052 171.559 131.468 171.287C130.884 171.007 130.44 170.575 130.136 169.991C129.88 169.479 129.74 168.963 129.716 168.443C129.7 167.915 129.692 167.319 129.692 166.655V154.991H131.828V166.559C131.828 167.087 131.832 167.539 131.84 167.915C131.856 168.291 131.94 168.615 132.092 168.887C132.38 169.399 132.836 169.699 133.46 169.787C134.092 169.875 134.852 169.851 135.74 169.715V171.551ZM127.064 160.355V158.591H135.74V160.355H127.064ZM142.787 171.899C141.243 171.899 139.975 171.563 138.983 170.891C137.999 170.211 137.395 169.263 137.171 168.047L139.355 167.699C139.531 168.403 139.935 168.963 140.567 169.379C141.199 169.787 141.983 169.991 142.919 169.991C143.807 169.991 144.503 169.807 145.007 169.439C145.511 169.071 145.763 168.571 145.763 167.939C145.763 167.571 145.679 167.275 145.511 167.051C145.343 166.819 144.995 166.603 144.467 166.403C143.947 166.203 143.159 165.963 142.103 165.683C140.959 165.379 140.059 165.063 139.403 164.735C138.747 164.407 138.279 164.027 137.999 163.595C137.719 163.163 137.579 162.639 137.579 162.023C137.579 161.263 137.787 160.599 138.203 160.031C138.619 159.455 139.199 159.011 139.943 158.699C140.695 158.387 141.567 158.231 142.559 158.231C143.543 158.231 144.423 158.387 145.199 158.699C145.975 159.011 146.599 159.455 147.071 160.031C147.551 160.599 147.835 161.263 147.923 162.023L145.739 162.419C145.635 161.723 145.299 161.175 144.731 160.775C144.171 160.375 143.447 160.163 142.559 160.139C141.719 160.107 141.035 160.255 140.507 160.583C139.987 160.911 139.727 161.355 139.727 161.915C139.727 162.227 139.823 162.495 140.015 162.719C140.215 162.943 140.579 163.155 141.107 163.355C141.643 163.555 142.419 163.783 143.435 164.039C144.579 164.327 145.479 164.643 146.135 164.987C146.799 165.323 147.271 165.723 147.551 166.187C147.831 166.643 147.971 167.207 147.971 167.879C147.971 169.127 147.511 170.111 146.591 170.831C145.671 171.543 144.403 171.899 142.787 171.899ZM155.698 171.551V157.883C155.698 157.547 155.714 157.207 155.746 156.863C155.778 156.511 155.85 156.171 155.962 155.843C156.074 155.507 156.258 155.199 156.514 154.919C156.81 154.591 157.134 154.359 157.486 154.223C157.838 154.079 158.194 153.991 158.554 153.959C158.922 153.927 159.27 153.911 159.598 153.911H161.242V155.687H159.718C159.086 155.687 158.614 155.843 158.302 156.155C157.99 156.459 157.834 156.923 157.834 157.547V171.551H155.698ZM153.502 160.355V158.591H161.242V160.355H153.502ZM167.729 171.911C166.441 171.911 165.329 171.619 164.393 171.035C163.465 170.451 162.749 169.643 162.245 168.611C161.741 167.579 161.489 166.395 161.489 165.059C161.489 163.699 161.745 162.507 162.257 161.483C162.769 160.459 163.493 159.663 164.429 159.095C165.365 158.519 166.465 158.231 167.729 158.231C169.025 158.231 170.141 158.523 171.077 159.107C172.013 159.683 172.729 160.487 173.225 161.519C173.729 162.543 173.981 163.723 173.981 165.059C173.981 166.411 173.729 167.603 173.225 168.635C172.721 169.659 172.001 170.463 171.065 171.047C170.129 171.623 169.017 171.911 167.729 171.911ZM167.729 169.883C169.073 169.883 170.073 169.435 170.729 168.539C171.385 167.643 171.713 166.483 171.713 165.059C171.713 163.595 171.381 162.431 170.717 161.567C170.053 160.695 169.057 160.259 167.729 160.259C166.825 160.259 166.081 160.463 165.497 160.871C164.913 161.279 164.477 161.843 164.189 162.563C163.901 163.283 163.757 164.115 163.757 165.059C163.757 166.515 164.093 167.683 164.765 168.563C165.437 169.443 166.425 169.883 167.729 169.883ZM181.063 171.887C180.231 171.887 179.515 171.755 178.915 171.491C178.323 171.227 177.831 170.875 177.439 170.435C177.047 169.995 176.739 169.507 176.515 168.971C176.291 168.435 176.131 167.887 176.035 167.327C175.947 166.767 175.903 166.243 175.903 165.755V158.591H178.063V165.083C178.063 165.691 178.119 166.279 178.231 166.847C178.343 167.415 178.531 167.927 178.795 168.383C179.067 168.839 179.427 169.199 179.875 169.463C180.331 169.727 180.899 169.859 181.579 169.859C182.115 169.859 182.603 169.767 183.043 169.583C183.483 169.399 183.859 169.127 184.171 168.767C184.483 168.399 184.723 167.935 184.891 167.375C185.059 166.815 185.143 166.163 185.143 165.419L186.547 165.851C186.547 167.099 186.319 168.175 185.863 169.079C185.415 169.983 184.779 170.679 183.955 171.167C183.139 171.647 182.175 171.887 181.063 171.887ZM185.383 171.551V168.083H185.143V158.591H187.291V171.551H185.383ZM199.399 171.551V165.059C199.399 164.443 199.343 163.851 199.231 163.283C199.127 162.715 198.939 162.207 198.667 161.759C198.403 161.303 198.043 160.943 197.587 160.679C197.139 160.415 196.571 160.283 195.883 160.283C195.347 160.283 194.859 160.375 194.419 160.559C193.987 160.735 193.615 161.007 193.303 161.375C192.991 161.743 192.747 162.207 192.571 162.767C192.403 163.319 192.319 163.971 192.319 164.723L190.915 164.291C190.915 163.035 191.139 161.959 191.587 161.063C192.043 160.159 192.679 159.467 193.495 158.987C194.319 158.499 195.287 158.255 196.399 158.255C197.239 158.255 197.955 158.387 198.547 158.651C199.139 158.915 199.631 159.267 200.023 159.707C200.415 160.139 200.723 160.627 200.947 161.171C201.171 161.707 201.327 162.255 201.415 162.815C201.511 163.367 201.559 163.891 201.559 164.387V171.551H199.399ZM190.159 171.551V158.591H192.079V162.059H192.319V171.551H190.159ZM209.169 171.911C207.961 171.911 206.925 171.611 206.061 171.011C205.197 170.403 204.529 169.583 204.057 168.551C203.593 167.519 203.361 166.355 203.361 165.059C203.361 163.763 203.593 162.599 204.057 161.567C204.529 160.535 205.197 159.723 206.061 159.131C206.925 158.531 207.957 158.231 209.157 158.231C210.381 158.231 211.409 158.527 212.241 159.119C213.073 159.711 213.701 160.523 214.125 161.555C214.557 162.587 214.773 163.755 214.773 165.059C214.773 166.347 214.557 167.511 214.125 168.551C213.701 169.583 213.073 170.403 212.241 171.011C211.409 171.611 210.385 171.911 209.169 171.911ZM209.433 169.955C210.305 169.955 211.021 169.747 211.581 169.331C212.141 168.907 212.553 168.327 212.817 167.591C213.089 166.847 213.225 166.003 213.225 165.059C213.225 164.099 213.089 163.255 212.817 162.527C212.553 161.791 212.145 161.219 211.593 160.811C211.041 160.395 210.341 160.187 209.493 160.187C208.613 160.187 207.885 160.403 207.309 160.835C206.741 161.267 206.317 161.851 206.037 162.587C205.765 163.323 205.629 164.147 205.629 165.059C205.629 165.979 205.769 166.811 206.049 167.555C206.329 168.291 206.749 168.875 207.309 169.307C207.877 169.739 208.585 169.955 209.433 169.955ZM213.225 171.551V162.011H212.985V154.271H215.133V171.551H213.225ZM217.775 174.239L217.907 173.243C218.243 173.267 218.495 173.203 218.663 173.051C218.831 172.899 218.939 172.691 218.987 172.427C219.035 172.163 219.043 171.871 219.011 171.551H217.775V168.839H220.127V171.911C220.127 172.751 219.919 173.383 219.503 173.807C219.095 174.231 218.519 174.375 217.775 174.239ZM234.492 171.911C233.276 171.911 232.252 171.611 231.42 171.011C230.588 170.403 229.956 169.583 229.524 168.551C229.1 167.511 228.888 166.347 228.888 165.059C228.888 163.755 229.1 162.587 229.524 161.555C229.956 160.523 230.588 159.711 231.42 159.119C232.26 158.527 233.288 158.231 234.504 158.231C235.704 158.231 236.736 158.531 237.6 159.131C238.472 159.723 239.14 160.535 239.604 161.567C240.068 162.599 240.3 163.763 240.3 165.059C240.3 166.355 240.068 167.519 239.604 168.551C239.14 169.583 238.472 170.403 237.6 171.011C236.736 171.611 235.7 171.911 234.492 171.911ZM228.528 177.311V158.591H230.436V168.131H230.676V177.311H228.528ZM234.228 169.955C235.084 169.955 235.792 169.739 236.352 169.307C236.912 168.875 237.332 168.291 237.612 167.555C237.892 166.811 238.032 165.979 238.032 165.059C238.032 164.147 237.892 163.323 237.612 162.587C237.34 161.851 236.916 161.267 236.34 160.835C235.772 160.403 235.048 160.187 234.168 160.187C233.328 160.187 232.632 160.395 232.08 160.811C231.528 161.219 231.116 161.791 230.844 162.527C230.572 163.255 230.436 164.099 230.436 165.059C230.436 166.003 230.568 166.847 230.832 167.591C231.104 168.327 231.52 168.907 232.08 169.331C232.64 169.747 233.356 169.955 234.228 169.955ZM242.69 171.551V153.911H244.826V171.551H242.69ZM253.563 171.911C252.291 171.911 251.179 171.631 250.227 171.071C249.283 170.503 248.547 169.715 248.019 168.707C247.491 167.691 247.227 166.507 247.227 165.155C247.227 163.739 247.487 162.515 248.007 161.483C248.527 160.443 249.251 159.643 250.179 159.083C251.115 158.515 252.211 158.231 253.467 158.231C254.771 158.231 255.879 158.531 256.791 159.131C257.711 159.731 258.399 160.587 258.855 161.699C259.319 162.811 259.519 164.135 259.455 165.671H257.295V164.903C257.271 163.311 256.947 162.123 256.323 161.339C255.699 160.547 254.771 160.151 253.539 160.151C252.219 160.151 251.215 160.575 250.527 161.423C249.839 162.271 249.495 163.487 249.495 165.071C249.495 166.599 249.839 167.783 250.527 168.623C251.215 169.463 252.195 169.883 253.467 169.883C254.323 169.883 255.067 169.687 255.699 169.295C256.331 168.903 256.827 168.339 257.187 167.603L259.239 168.311C258.735 169.455 257.975 170.343 256.959 170.975C255.951 171.599 254.819 171.911 253.563 171.911ZM248.775 165.671V163.955H258.351V165.671H248.775ZM265.096 171.911C264.128 171.911 263.316 171.735 262.66 171.383C262.012 171.023 261.52 170.551 261.184 169.967C260.856 169.383 260.692 168.743 260.692 168.047C260.692 167.367 260.82 166.779 261.076 166.283C261.34 165.779 261.708 165.363 262.18 165.035C262.652 164.699 263.216 164.435 263.872 164.243C264.488 164.075 265.176 163.931 265.936 163.811C266.704 163.683 267.48 163.567 268.264 163.463C269.048 163.359 269.78 163.259 270.46 163.163L269.692 163.607C269.716 162.455 269.484 161.603 268.996 161.051C268.516 160.499 267.684 160.223 266.5 160.223C265.716 160.223 265.028 160.403 264.436 160.763C263.852 161.115 263.44 161.691 263.2 162.491L261.172 161.879C261.484 160.743 262.088 159.851 262.984 159.203C263.88 158.555 265.06 158.231 266.524 158.231C267.7 158.231 268.708 158.443 269.548 158.867C270.396 159.283 271.004 159.915 271.372 160.763C271.556 161.163 271.672 161.599 271.72 162.071C271.768 162.535 271.792 163.023 271.792 163.535V171.551H269.896V168.443L270.34 168.731C269.852 169.779 269.168 170.571 268.288 171.107C267.416 171.643 266.352 171.911 265.096 171.911ZM265.42 170.123C266.188 170.123 266.852 169.987 267.412 169.715C267.98 169.435 268.436 169.071 268.78 168.623C269.124 168.167 269.348 167.671 269.452 167.135C269.572 166.735 269.636 166.291 269.644 165.803C269.66 165.307 269.668 164.927 269.668 164.663L270.412 164.987C269.716 165.083 269.032 165.175 268.36 165.263C267.688 165.351 267.052 165.447 266.452 165.551C265.852 165.647 265.312 165.763 264.832 165.899C264.48 166.011 264.148 166.155 263.836 166.331C263.532 166.507 263.284 166.735 263.092 167.015C262.908 167.287 262.816 167.627 262.816 168.035C262.816 168.387 262.904 168.723 263.08 169.043C263.264 169.363 263.544 169.623 263.92 169.823C264.304 170.023 264.804 170.123 265.42 170.123ZM279.328 171.899C277.784 171.899 276.516 171.563 275.524 170.891C274.54 170.211 273.936 169.263 273.712 168.047L275.896 167.699C276.072 168.403 276.476 168.963 277.108 169.379C277.74 169.787 278.524 169.991 279.46 169.991C280.348 169.991 281.044 169.807 281.548 169.439C282.052 169.071 282.304 168.571 282.304 167.939C282.304 167.571 282.22 167.275 282.052 167.051C281.884 166.819 281.536 166.603 281.008 166.403C280.488 166.203 279.7 165.963 278.644 165.683C277.5 165.379 276.6 165.063 275.944 164.735C275.288 164.407 274.82 164.027 274.54 163.595C274.26 163.163 274.12 162.639 274.12 162.023C274.12 161.263 274.328 160.599 274.744 160.031C275.16 159.455 275.74 159.011 276.484 158.699C277.236 158.387 278.108 158.231 279.1 158.231C280.084 158.231 280.964 158.387 281.74 158.699C282.516 159.011 283.14 159.455 283.612 160.031C284.092 160.599 284.376 161.263 284.464 162.023L282.28 162.419C282.176 161.723 281.84 161.175 281.272 160.775C280.712 160.375 279.988 160.163 279.1 160.139C278.26 160.107 277.576 160.255 277.048 160.583C276.528 160.911 276.268 161.355 276.268 161.915C276.268 162.227 276.364 162.495 276.556 162.719C276.756 162.943 277.12 163.155 277.648 163.355C278.184 163.555 278.96 163.783 279.976 164.039C281.12 164.327 282.02 164.643 282.676 164.987C283.34 165.323 283.812 165.723 284.092 166.187C284.372 166.643 284.512 167.207 284.512 167.879C284.512 169.127 284.052 170.111 283.132 170.831C282.212 171.543 280.944 171.899 279.328 171.899ZM292.295 171.911C291.023 171.911 289.911 171.631 288.959 171.071C288.015 170.503 287.279 169.715 286.751 168.707C286.223 167.691 285.959 166.507 285.959 165.155C285.959 163.739 286.219 162.515 286.739 161.483C287.259 160.443 287.983 159.643 288.911 159.083C289.847 158.515 290.943 158.231 292.199 158.231C293.503 158.231 294.611 158.531 295.523 159.131C296.443 159.731 297.131 160.587 297.587 161.699C298.051 162.811 298.251 164.135 298.187 165.671H296.027V164.903C296.003 163.311 295.679 162.123 295.055 161.339C294.431 160.547 293.503 160.151 292.271 160.151C290.951 160.151 289.947 160.575 289.259 161.423C288.571 162.271 288.227 163.487 288.227 165.071C288.227 166.599 288.571 167.783 289.259 168.623C289.947 169.463 290.927 169.883 292.199 169.883C293.055 169.883 293.799 169.687 294.431 169.295C295.063 168.903 295.559 168.339 295.919 167.603L297.971 168.311C297.467 169.455 296.707 170.343 295.691 170.975C294.683 171.599 293.551 171.911 292.295 171.911ZM287.507 165.671V163.955H297.083V165.671H287.507ZM311.939 171.551C311.171 171.703 310.411 171.763 309.659 171.731C308.915 171.707 308.251 171.559 307.667 171.287C307.083 171.007 306.639 170.575 306.335 169.991C306.079 169.479 305.939 168.963 305.915 168.443C305.899 167.915 305.891 167.319 305.891 166.655V154.991H308.027V166.559C308.027 167.087 308.031 167.539 308.039 167.915C308.055 168.291 308.139 168.615 308.291 168.887C308.579 169.399 309.035 169.699 309.659 169.787C310.291 169.875 311.051 169.851 311.939 169.715V171.551ZM303.263 160.355V158.591H311.939V160.355H303.263ZM314.09 171.551V158.591H315.998V161.723L315.686 161.315C315.838 160.915 316.034 160.547 316.274 160.211C316.522 159.875 316.798 159.599 317.102 159.383C317.438 159.111 317.818 158.903 318.242 158.759C318.666 158.615 319.098 158.531 319.538 158.507C319.978 158.475 320.39 158.503 320.774 158.591V160.595C320.326 160.475 319.834 160.443 319.298 160.499C318.762 160.555 318.266 160.751 317.81 161.087C317.394 161.383 317.07 161.743 316.838 162.167C316.614 162.591 316.458 163.051 316.37 163.547C316.282 164.035 316.238 164.535 316.238 165.047V171.551H314.09ZM324.129 177.311L326.637 170.495L326.673 172.511L321.009 158.591H323.253L327.693 169.787H326.925L331.089 158.591H333.261L326.205 177.311H324.129ZM342.772 171.911C341.804 171.911 340.992 171.735 340.336 171.383C339.688 171.023 339.196 170.551 338.86 169.967C338.532 169.383 338.368 168.743 338.368 168.047C338.368 167.367 338.496 166.779 338.752 166.283C339.016 165.779 339.384 165.363 339.856 165.035C340.328 164.699 340.892 164.435 341.548 164.243C342.164 164.075 342.852 163.931 343.612 163.811C344.38 163.683 345.156 163.567 345.94 163.463C346.724 163.359 347.456 163.259 348.136 163.163L347.368 163.607C347.392 162.455 347.16 161.603 346.672 161.051C346.192 160.499 345.36 160.223 344.176 160.223C343.392 160.223 342.704 160.403 342.112 160.763C341.528 161.115 341.116 161.691 340.876 162.491L338.848 161.879C339.16 160.743 339.764 159.851 340.66 159.203C341.556 158.555 342.736 158.231 344.2 158.231C345.376 158.231 346.384 158.443 347.224 158.867C348.072 159.283 348.68 159.915 349.048 160.763C349.232 161.163 349.348 161.599 349.396 162.071C349.444 162.535 349.468 163.023 349.468 163.535V171.551H347.572V168.443L348.016 168.731C347.528 169.779 346.844 170.571 345.964 171.107C345.092 171.643 344.028 171.911 342.772 171.911ZM343.096 170.123C343.864 170.123 344.528 169.987 345.088 169.715C345.656 169.435 346.112 169.071 346.456 168.623C346.8 168.167 347.024 167.671 347.128 167.135C347.248 166.735 347.312 166.291 347.32 165.803C347.336 165.307 347.344 164.927 347.344 164.663L348.088 164.987C347.392 165.083 346.708 165.175 346.036 165.263C345.364 165.351 344.728 165.447 344.128 165.551C343.528 165.647 342.988 165.763 342.508 165.899C342.156 166.011 341.824 166.155 341.512 166.331C341.208 166.507 340.96 166.735 340.768 167.015C340.584 167.287 340.492 167.627 340.492 168.035C340.492 168.387 340.58 168.723 340.756 169.043C340.94 169.363 341.22 169.623 341.596 169.823C341.98 170.023 342.48 170.123 343.096 170.123ZM357.352 177.671C356.672 177.671 356.008 177.567 355.36 177.359C354.712 177.151 354.116 176.835 353.572 176.411C353.036 175.995 352.588 175.467 352.228 174.827L354.184 173.795C354.504 174.427 354.956 174.887 355.54 175.175C356.132 175.463 356.74 175.607 357.364 175.607C358.188 175.607 358.872 175.455 359.416 175.151C359.96 174.855 360.36 174.411 360.616 173.819C360.88 173.227 361.008 172.491 361 171.611V168.071H361.252V158.591H363.148V171.635C363.148 171.987 363.136 172.327 363.112 172.655C363.096 172.983 363.056 173.307 362.992 173.627C362.824 174.547 362.492 175.303 361.996 175.895C361.5 176.495 360.86 176.939 360.076 177.227C359.292 177.523 358.384 177.671 357.352 177.671ZM357.196 171.911C355.988 171.911 354.952 171.611 354.088 171.011C353.224 170.403 352.556 169.583 352.084 168.551C351.62 167.519 351.388 166.355 351.388 165.059C351.388 163.763 351.62 162.599 352.084 161.567C352.556 160.535 353.224 159.723 354.088 159.131C354.952 158.531 355.984 158.231 357.184 158.231C358.408 158.231 359.436 158.527 360.268 159.119C361.1 159.711 361.728 160.523 362.152 161.555C362.584 162.587 362.8 163.755 362.8 165.059C362.8 166.347 362.584 167.511 362.152 168.551C361.728 169.583 361.1 170.403 360.268 171.011C359.436 171.611 358.412 171.911 357.196 171.911ZM357.46 169.955C358.332 169.955 359.048 169.747 359.608 169.331C360.168 168.907 360.58 168.327 360.844 167.591C361.116 166.847 361.252 166.003 361.252 165.059C361.252 164.099 361.116 163.255 360.844 162.527C360.58 161.791 360.172 161.219 359.62 160.811C359.068 160.395 358.368 160.187 357.52 160.187C356.64 160.187 355.912 160.403 355.336 160.835C354.768 161.267 354.344 161.851 354.064 162.587C353.792 163.323 353.656 164.147 353.656 165.059C353.656 165.979 353.796 166.811 354.076 167.555C354.356 168.291 354.776 168.875 355.336 169.307C355.904 169.739 356.612 169.955 357.46 169.955ZM369.703 171.911C368.735 171.911 367.923 171.735 367.267 171.383C366.619 171.023 366.127 170.551 365.791 169.967C365.463 169.383 365.299 168.743 365.299 168.047C365.299 167.367 365.427 166.779 365.683 166.283C365.947 165.779 366.315 165.363 366.787 165.035C367.259 164.699 367.823 164.435 368.479 164.243C369.095 164.075 369.783 163.931 370.543 163.811C371.311 163.683 372.087 163.567 372.871 163.463C373.655 163.359 374.387 163.259 375.067 163.163L374.299 163.607C374.323 162.455 374.091 161.603 373.603 161.051C373.123 160.499 372.291 160.223 371.107 160.223C370.323 160.223 369.635 160.403 369.043 160.763C368.459 161.115 368.047 161.691 367.807 162.491L365.779 161.879C366.091 160.743 366.695 159.851 367.591 159.203C368.487 158.555 369.667 158.231 371.131 158.231C372.307 158.231 373.315 158.443 374.155 158.867C375.003 159.283 375.611 159.915 375.979 160.763C376.163 161.163 376.279 161.599 376.327 162.071C376.375 162.535 376.399 163.023 376.399 163.535V171.551H374.503V168.443L374.947 168.731C374.459 169.779 373.775 170.571 372.895 171.107C372.023 171.643 370.959 171.911 369.703 171.911ZM370.027 170.123C370.795 170.123 371.459 169.987 372.019 169.715C372.587 169.435 373.043 169.071 373.387 168.623C373.731 168.167 373.955 167.671 374.059 167.135C374.179 166.735 374.243 166.291 374.251 165.803C374.267 165.307 374.275 164.927 374.275 164.663L375.019 164.987C374.323 165.083 373.639 165.175 372.967 165.263C372.295 165.351 371.659 165.447 371.059 165.551C370.459 165.647 369.919 165.763 369.439 165.899C369.087 166.011 368.755 166.155 368.443 166.331C368.139 166.507 367.891 166.735 367.699 167.015C367.515 167.287 367.423 167.627 367.423 168.035C367.423 168.387 367.511 168.723 367.687 169.043C367.871 169.363 368.151 169.623 368.527 169.823C368.911 170.023 369.411 170.123 370.027 170.123ZM379.279 156.299V154.091H381.415V156.299H379.279ZM379.279 171.551V158.591H381.415V171.551H379.279ZM393.763 171.551V165.059C393.763 164.443 393.707 163.851 393.595 163.283C393.491 162.715 393.303 162.207 393.031 161.759C392.767 161.303 392.407 160.943 391.951 160.679C391.503 160.415 390.935 160.283 390.247 160.283C389.711 160.283 389.223 160.375 388.783 160.559C388.351 160.735 387.979 161.007 387.667 161.375C387.355 161.743 387.111 162.207 386.935 162.767C386.767 163.319 386.683 163.971 386.683 164.723L385.279 164.291C385.279 163.035 385.503 161.959 385.951 161.063C386.407 160.159 387.043 159.467 387.859 158.987C388.683 158.499 389.651 158.255 390.763 158.255C391.603 158.255 392.319 158.387 392.911 158.651C393.503 158.915 393.995 159.267 394.387 159.707C394.779 160.139 395.087 160.627 395.311 161.171C395.535 161.707 395.691 162.255 395.779 162.815C395.875 163.367 395.923 163.891 395.923 164.387V171.551H393.763ZM384.523 171.551V158.591H386.443V162.059H386.683V171.551H384.523ZM398.947 171.551V169.199H401.299V171.551H398.947Z" fill="#101828"/>
<defs>
<filter id="filter0_dd_1668_53881" x="128.215" y="-5.24521e-06" width="176.455" height="176.455" filterUnits="userSpaceOnUse" color-interpolation-filters="sRGB">
<feFlood flood-opacity="0" result="BackgroundImageFix"/>
<feColorMatrix in="SourceAlpha" type="matrix" values="0 0 0 0 0 0 0 0 0 0 0 0 0 0 0 0 0 0 127 0" result="hardAlpha"/>
<feOffset dy="15.7549"/>
<feGaussianBlur stdDeviation="7.87746"/>
<feColorMatrix type="matrix" values="0 0 0 0 0 0 0 0 0 0 0 0 0 0 0 0 0 0 0.04 0"/>
<feBlend mode="normal" in2="BackgroundImageFix" result="effect1_dropShadow_1668_53881"/>
<feColorMatrix in="SourceAlpha" type="matrix" values="0 0 0 0 0 0 0 0 0 0 0 0 0 0 0 0 0 0 127 0" result="hardAlpha"/>
<feMorphology radius="7.87746" operator="erode" in="SourceAlpha" result="effect2_dropShadow_1668_53881"/>
<feOffset dy="31.5098"/>
<feGaussianBlur stdDeviation="19.6936"/>
<feColorMatrix type="matrix" values="0 0 0 0 0 0 0 0 0 0 0 0 0 0 0 0 0 0 0.1 0"/>
<feBlend mode="normal" in2="effect1_dropShadow_1668_53881" result="effect2_dropShadow_1668_53881"/>
<feBlend mode="normal" in="SourceGraphic" in2="effect2_dropShadow_1668_53881" result="shape"/>
</filter>
<linearGradient id="paint0_linear_1668_53881" x1="249.865" y1="58.237" x2="216.442" y2="58.237" gradientUnits="userSpaceOnUse">
<stop stop-color="#CFDFFC"/>
<stop offset="1" stop-color="#9EBFFA"/>
</linearGradient>
<linearGradient id="paint1_linear_1668_53881" x1="216.442" y1="60.2624" x2="184.032" y2="60.2624" gradientUnits="userSpaceOnUse">
<stop stop-color="#CFDFFC"/>
<stop offset="1" stop-color="#9EBFFA"/>
</linearGradient>
</defs>
</svg>
