<svg width="14" height="16" viewBox="0 0 14 16" fill="none" xmlns="http://www.w3.org/2000/svg">
<path fill-rule="evenodd" clip-rule="evenodd" d="M7.41213 9.2975H8.69678C9.00124 9.2975 9.25371 9.05 9.25371 8.7425C9.25371 8.4275 9.00124 8.18 8.69678 8.18H7.41213V6.8825C7.41213 6.575 7.16708 6.3275 6.86262 6.3275C6.55817 6.3275 6.30569 6.575 6.30569 6.8825V8.18H5.02847C4.72401 8.18 4.47153 8.4275 4.47153 8.7425C4.47153 9.05 4.72401 9.2975 5.02847 9.2975H6.30569V10.595C6.30569 10.9025 6.55817 11.15 6.86262 11.15C7.16708 11.15 7.41213 10.9025 7.41213 10.595V9.2975ZM12.5036 5.76921C12.6781 5.76719 12.8682 5.765 13.0408 5.765C13.2265 5.765 13.375 5.915 13.375 6.1025V12.1325C13.375 13.9925 11.8824 15.5 10.0334 15.5H4.12995C2.19926 15.5 0.625 13.9175 0.625 11.9675V3.8825C0.625 2.0225 2.125 0.5 3.97401 0.5H7.93936C8.13243 0.5 8.28094 0.6575 8.28094 0.845V3.26C8.28094 4.6325 9.40223 5.7575 10.7611 5.765C11.0786 5.765 11.3584 5.76737 11.6033 5.76945C11.7938 5.77106 11.9632 5.7725 12.1126 5.7725C12.2183 5.7725 12.3553 5.77092 12.5036 5.76921ZM12.7075 4.67465C12.0971 4.6769 11.3775 4.67465 10.86 4.6694C10.0387 4.6694 9.3622 3.98615 9.3622 3.15665V1.17965C9.3622 0.8564 9.75057 0.6959 9.9726 0.92915C10.3749 1.35166 10.928 1.9326 11.4783 2.51072C12.026 3.08608 12.5711 3.65863 12.9622 4.0694C13.179 4.29665 13.0201 4.6739 12.7075 4.67465Z" fill="#344054"/>
</svg>
